<svg xmlns="http://www.w3.org/2000/svg" viewBox="0 0 32 32">
  <defs>
    <linearGradient id="bg" x1="0%" y1="0%" x2="100%" y2="100%">
      <stop offset="0%" stop-color="#1a0a2e"/>
      <stop offset="100%" stop-color="#0d0520"/>
    </linearGradient>
    <linearGradient id="sg" x1="0%" y1="0%" x2="100%" y2="100%">
      <stop offset="0%" stop-color="#A78BFA"/>
      <stop offset="100%" stop-color="#7C3AED"/>
    </linearGradient>
    <linearGradient id="eg" x1="0%" y1="0%" x2="100%" y2="100%">
      <stop offset="0%" stop-color="#10B981"/>
      <stop offset="100%" stop-color="#059669"/>
    </linearGradient>
  </defs>
  <rect width="32" height="32" rx="7" fill="url(#bg)"/>
  <polygon points="16,2.5 27.5,9 27.5,23 16,29.5 4.5,23 4.5,9" fill="none" stroke="url(#sg)" stroke-width="1.2"/>
  <polygon points="16,9.5 22,16 16,22.5 10,16" fill="none" stroke="url(#eg)" stroke-width="1.2"/>
  <circle cx="16" cy="16" r="2" fill="url(#eg)"/>
  <line x1="16" y1="2.5" x2="16" y2="9.5" stroke="#A78BFA" stroke-width="0.7" stroke-opacity="0.5"/>
  <line x1="16" y1="22.5" x2="16" y2="29.5" stroke="#A78BFA" stroke-width="0.7" stroke-opacity="0.5"/>
  <line x1="4.5" y1="9" x2="10" y2="16" stroke="#A78BFA" stroke-width="0.7" stroke-opacity="0.5"/>
  <line x1="27.5" y1="9" x2="22" y2="16" stroke="#A78BFA" stroke-width="0.7" stroke-opacity="0.5"/>
  <line x1="4.5" y1="23" x2="10" y2="16" stroke="#A78BFA" stroke-width="0.7" stroke-opacity="0.5"/>
  <line x1="27.5" y1="23" x2="22" y2="16" stroke="#A78BFA" stroke-width="0.7" stroke-opacity="0.5"/>
</svg>
