<svg width="506" height="146" viewBox="0 0 506 146" fill="none" xmlns="http://www.w3.org/2000/svg">
<rect width="146" height="146" rx="24" fill="url(#paint0_linear_2_3)"/>
<path d="M33.1246 82.7973C32.1172 82.8006 31.1296 82.5274 30.2763 82.0095C29.4231 81.4915 28.7393 80.75 28.3045 79.8711C27.8696 78.9922 27.7016 78.0121 27.8198 77.0445C27.938 76.0769 28.3377 75.1616 28.9723 74.405L81.6748 21.8887C82.0701 21.4473 82.6088 21.1491 83.2025 21.0429C83.7962 20.9367 84.4096 21.0289 84.942 21.3043C85.4743 21.5797 85.8941 22.022 86.1323 22.5586C86.3705 23.0951 86.4131 23.694 86.253 24.2571L76.0319 55.252C75.7305 56.0321 75.6293 56.8713 75.7369 57.6976C75.8446 58.5239 76.1578 59.3126 76.6499 59.9961C77.1419 60.6796 77.7981 61.2374 78.562 61.6217C79.3259 62.006 80.1749 62.2054 81.036 62.2027H118.3C119.308 62.1994 120.295 62.4726 121.149 62.9905C122.002 63.5085 122.686 64.25 123.12 65.1289C123.555 66.0078 123.723 66.9879 123.605 67.9555C123.487 68.9231 123.087 69.8384 122.453 70.595L69.7502 123.111C69.3548 123.553 68.8161 123.851 68.2224 123.957C67.6287 124.063 67.0154 123.971 66.483 123.696C65.9506 123.42 65.5309 122.978 65.2926 122.441C65.0544 121.905 65.0119 121.306 65.172 120.743L75.3931 89.748C75.6945 88.9679 75.7957 88.1287 75.688 87.3024C75.5804 86.4761 75.2671 85.6874 74.7751 85.0039C74.283 84.3204 73.6269 83.7626 72.8629 83.3783C72.099 82.994 71.2501 82.7946 70.389 82.7973H33.1246Z" stroke="white" stroke-width="5" stroke-linecap="round" stroke-linejoin="round"/>
<path d="M227.6 112.976H210.896C210.416 109.616 209.36 106.064 206.768 98.768L197.936 73.232C197.84 72.752 194.96 63.824 194.672 63.056C193.616 59.6 193.616 59.6 193.136 58.256C193.712 64.304 194.096 72.176 194.096 77.264V98.096C194.096 104.72 194.288 108.944 194.864 112.976H175.952C176.528 108.656 176.72 104.624 176.72 98.096V48.08C176.72 42.32 176.432 37.232 175.952 33.104H201.296C201.968 37.232 202.736 40.304 204.944 46.64L219.344 88.016L233.648 46.64C235.856 40.208 236.624 37.136 237.2 33.104H262.64C262.064 37.712 261.872 41.648 261.872 48.08V98.096C261.872 105.392 262.064 109.136 262.64 112.976H243.728C244.304 108.56 244.496 104.912 244.496 98.096V77.168C244.496 74.864 244.784 67.664 244.976 64.688C245.264 59.6 245.264 59.6 245.36 58.16C243.248 65.648 242.288 69.104 241.04 72.56L231.728 98.864C229.328 105.68 228.08 109.904 227.6 112.976ZM318.543 81.008V98.768C318.543 103.76 318.735 107.984 319.311 112.976H298.383C298.863 108.56 299.151 104.144 299.151 98.768V81.008L277.071 44.72C275.343 41.744 273.231 38.576 269.391 33.104H293.679C294.735 36.464 295.791 38.96 298.191 43.184L308.847 62.672L319.503 43.28C321.903 38.864 323.247 35.888 323.919 33.104H348.207C345.423 37.136 341.775 42.608 340.527 44.72L318.543 81.008ZM355.691 99.248V46.928C355.691 40.4 355.499 37.232 354.827 32.816C358.667 33.008 361.067 33.104 369.035 33.104H389.099C400.907 33.104 410.411 36.368 416.843 42.608C423.851 49.52 427.403 59.6 427.403 72.368C427.403 85.52 423.563 96.08 416.267 103.376C409.835 109.712 400.715 112.976 389.291 112.976H369.035C361.643 112.976 358.955 113.072 354.923 113.264C355.499 109.04 355.691 105.872 355.691 99.248ZM374.699 96.176H387.563C393.803 96.176 398.219 94.544 401.675 91.088C405.611 87.056 407.723 80.624 407.723 72.656C407.723 64.496 405.899 58.544 402.155 54.8C398.795 51.44 394.187 49.904 387.275 49.904H374.699V96.176ZM475.199 81.008V98.768C475.199 103.76 475.391 107.984 475.967 112.976H455.039C455.519 108.56 455.807 104.144 455.807 98.768V81.008L433.727 44.72C431.999 41.744 429.887 38.576 426.047 33.104H450.335C451.391 36.464 452.447 38.96 454.847 43.184L465.503 62.672L476.159 43.28C478.559 38.864 479.903 35.888 480.575 33.104H504.863C502.079 37.136 498.431 42.608 497.183 44.72L475.199 81.008Z" fill="black"/>
<defs>
<linearGradient id="paint0_linear_2_3" x1="0" y1="0" x2="146" y2="146" gradientUnits="userSpaceOnUse">
<stop stop-color="#6366F1"/>
<stop offset="1" stop-color="#9333EA"/>
</linearGradient>
</defs>
</svg>
