<svg width="506" height="146" viewBox="0 0 506 146" fill="none" xmlns="http://www.w3.org/2000/svg">
<rect width="146" height="146" rx="24" fill="url(#paint0_linear_2_5)"/>
<path d="M37.4579 81.5978C36.6172 81.6005 35.7929 81.3724 35.0808 80.9399C34.3688 80.5075 33.7981 79.8883 33.4352 79.1545C33.0723 78.4207 32.932 77.6023 33.0307 76.7944C33.1294 75.9866 33.4629 75.2223 33.9926 74.5906L77.9759 30.742C78.3058 30.3735 78.7554 30.1245 79.2509 30.0358C79.7463 29.9472 80.2582 30.0241 80.7025 30.2541C81.1469 30.4841 81.4972 30.8533 81.696 31.3013C81.8948 31.7493 81.9303 32.2494 81.7967 32.7195L73.2666 58.5988C73.015 59.2501 72.9306 59.9508 73.0204 60.6407C73.1102 61.3307 73.3717 61.9892 73.7823 62.5599C74.193 63.1305 74.7406 63.5963 75.3781 63.9172C76.0156 64.238 76.7241 64.4045 77.4428 64.4022H108.542C109.383 64.3995 110.207 64.6276 110.919 65.0601C111.631 65.4926 112.202 66.1117 112.565 66.8455C112.928 67.5793 113.068 68.3977 112.969 69.2056C112.871 70.0134 112.537 70.7777 112.007 71.4094L68.0241 115.258C67.6942 115.626 67.2446 115.875 66.7491 115.964C66.2537 116.053 65.7418 115.976 65.2975 115.746C64.8531 115.516 64.5028 115.147 64.304 114.699C64.1052 114.251 64.0697 113.751 64.2033 113.281L72.7334 87.4013C72.985 86.7499 73.0694 86.0492 72.9796 85.3593C72.8898 84.6693 72.6283 84.0108 72.2177 83.4402C71.807 82.8695 71.2594 82.4037 70.6219 82.0828C69.9844 81.762 69.2759 81.5955 68.5572 81.5978H37.4579Z" stroke="white" stroke-width="8" stroke-linecap="round" stroke-linejoin="round"/>
<path d="M227.6 112.976H210.896C210.416 109.616 209.36 106.064 206.768 98.768L197.936 73.232C197.84 72.752 194.96 63.824 194.672 63.056C193.616 59.6 193.616 59.6 193.136 58.256C193.712 64.304 194.096 72.176 194.096 77.264V98.096C194.096 104.72 194.288 108.944 194.864 112.976H175.952C176.528 108.656 176.72 104.624 176.72 98.096V48.08C176.72 42.32 176.432 37.232 175.952 33.104H201.296C201.968 37.232 202.736 40.304 204.944 46.64L219.344 88.016L233.648 46.64C235.856 40.208 236.624 37.136 237.2 33.104H262.64C262.064 37.712 261.872 41.648 261.872 48.08V98.096C261.872 105.392 262.064 109.136 262.64 112.976H243.728C244.304 108.56 244.496 104.912 244.496 98.096V77.168C244.496 74.864 244.784 67.664 244.976 64.688C245.264 59.6 245.264 59.6 245.36 58.16C243.248 65.648 242.288 69.104 241.04 72.56L231.728 98.864C229.328 105.68 228.08 109.904 227.6 112.976ZM318.543 81.008V98.768C318.543 103.76 318.735 107.984 319.311 112.976H298.383C298.863 108.56 299.151 104.144 299.151 98.768V81.008L277.071 44.72C275.343 41.744 273.231 38.576 269.391 33.104H293.679C294.735 36.464 295.791 38.96 298.191 43.184L308.847 62.672L319.503 43.28C321.903 38.864 323.247 35.888 323.919 33.104H348.207C345.423 37.136 341.775 42.608 340.527 44.72L318.543 81.008ZM355.691 99.248V46.928C355.691 40.4 355.499 37.232 354.827 32.816C358.667 33.008 361.067 33.104 369.035 33.104H389.099C400.907 33.104 410.411 36.368 416.843 42.608C423.851 49.52 427.403 59.6 427.403 72.368C427.403 85.52 423.563 96.08 416.267 103.376C409.835 109.712 400.715 112.976 389.291 112.976H369.035C361.643 112.976 358.955 113.072 354.923 113.264C355.499 109.04 355.691 105.872 355.691 99.248ZM374.699 96.176H387.563C393.803 96.176 398.219 94.544 401.675 91.088C405.611 87.056 407.723 80.624 407.723 72.656C407.723 64.496 405.899 58.544 402.155 54.8C398.795 51.44 394.187 49.904 387.275 49.904H374.699V96.176ZM475.199 81.008V98.768C475.199 103.76 475.391 107.984 475.967 112.976H455.039C455.519 108.56 455.807 104.144 455.807 98.768V81.008L433.727 44.72C431.999 41.744 429.887 38.576 426.047 33.104H450.335C451.391 36.464 452.447 38.96 454.847 43.184L465.503 62.672L476.159 43.28C478.559 38.864 479.903 35.888 480.575 33.104H504.863C502.079 37.136 498.431 42.608 497.183 44.72L475.199 81.008Z" fill="white"/>
<defs>
<linearGradient id="paint0_linear_2_5" x1="0" y1="0" x2="146" y2="146" gradientUnits="userSpaceOnUse">
<stop stop-color="#6366F1"/>
<stop offset="1" stop-color="#9333EA"/>
</linearGradient>
</defs>
</svg>
